<?xml version="1.0" standalone="no"?>
<!DOCTYPE svg PUBLIC "-//W3C//DTD SVG 1.1//EN" "http://www.w3.org/Graphics/SVG/1.1/DTD/svg11.dtd" >
<svg xmlns="http://www.w3.org/2000/svg">
<metadata>
This is a custom SVG webfont generated by Font Squirrel.
Copyright   : Copyright c Phanlop Thongsuk 19952009 All rights reserved
Designer    : Phanlop Thongsuk
Foundry     : Phanlop Thongsuk
Foundry URL : wwwfontpslcom
</metadata>
<defs>
<font id="PSLKittithadaProRegular" horiz-adv-x="0" >
<font-face units-per-em="2048" ascent="1638" descent="-410" />
<missing-glyph horiz-adv-x="512" />
<glyph unicode="&#xe37;&#xe48;" d="M-666 922v61h410v102h61v-102h62v102h61v-163h-594zM-195 1147v143h62v-143h-62z" />
<glyph unicode=" "  horiz-adv-x="512" />
<glyph unicode="&#x09;" horiz-adv-x="512" />
<glyph unicode="&#xa0;" horiz-adv-x="512" />
<glyph unicode="!" horiz-adv-x="315" d="M92 55q0 68 66 68q65 0 65 -68q0 -65 -65 -65q-66 0 -66 65zM117 715v366h84v-366l-25 -502h-37z" />
<glyph unicode="&#x22;" horiz-adv-x="371" d="M74 1081h71l-16 -344h-41zM223 1081h74l-14 -344h-45z" />
<glyph unicode="#" horiz-adv-x="846" d="M74 328v67h178l33 234h-172v67h180l45 305h70l-46 -305h191l43 305h66l-44 -305h154v-67h-164l-35 -234h164v-67h-176l-51 -328h-64l50 328h-187l-47 -328h-65l45 328h-168zM317 395h191l35 234h-191z" />
<glyph unicode="$" horiz-adv-x="838" d="M102 219l60 27q74 -194 246 -191v496q-63 31 -105 56.5t-65 45.5q-80 71 -80 172q0 55 18 102t51 82.5t79 58t102 28.5v149h63v-155q69 -11 122.5 -46t90.5 -98l-53 -43q-64 108 -160 123v-430q150 -77 184 -109q84 -71 84 -190q0 -112 -77 -201q-78 -86 -191 -108v-162 h-63v160q-219 12 -306 233zM229 823q0 -67 56 -118q17 -16 47.5 -35.5t75.5 -42.5v399q-39 -2 -72 -19.5t-57 -45t-37 -63.5t-13 -75zM471 57q43 10 79.5 33t62.5 56t40.5 73t14.5 84q0 74 -62 133q-20 17 -53.5 38t-81.5 44v-461z" />
<glyph unicode="%" horiz-adv-x="907" d="M33 879q0 46 16 85t44 67.5t67 44.5t84 16q43 0 81.5 -16t67.5 -44.5t45.5 -67.5t16.5 -85q0 -45 -16.5 -84t-45.5 -67t-67.5 -44t-81.5 -16q-44 0 -82.5 16t-67 44t-45 67t-16.5 84zM92 879q0 -32 12 -59.5t33 -48t48.5 -32.5t58.5 -12t58.5 12t48.5 33t33.5 48.5 t12.5 58.5t-12.5 59t-33.5 48t-48.5 32t-58.5 12t-58.5 -12t-48.5 -32t-33 -48t-12 -59zM115 -4l626 1110l47 -21l-624 -1110zM451 203q0 46 16.5 85t45 67t67.5 43.5t84 15.5q43 0 81.5 -16t67 -44t45 -67t16.5 -84t-16.5 -84t-45 -67t-67 -44t-81.5 -16q-44 0 -82.5 16 t-67.5 44t-46 67t-17 84zM510 203q0 -32 12 -59.5t33 -48t49 -32.5t60 -12q30 0 58 12t49 32.5t33.5 48t12.5 59.5q0 31 -12.5 59t-33.5 49t-49 33t-58 12q-32 0 -60 -12t-49 -33t-33 -49t-12 -59z" />
<glyph unicode="&#x26;" horiz-adv-x="877" d="M23 264q0 123 104 230q29 31 83.5 72t133.5 93q-115 146 -115 236q0 83 62 145t143 62q41 0 76 -16t60.5 -43.5t40 -64t14.5 -77.5q0 -84 -58 -151q-37 -50 -139 -117l262 -363l127 152l41 -43l-129 -158l156 -221h-70l-127 176q-175 -196 -393 -196q-114 0 -193 81 q-79 82 -79 203zM90 270q0 -47 15.5 -88.5t43 -73t65 -49.5t81.5 -18q60 0 111.5 15t99.5 44q58 37 141 123l-268 379q-289 -162 -289 -332zM297 887q0 -23 8 -49t25 -54l63 -96l113 90q53 56 53 123q0 28 -10 52.5t-27 43.5t-40.5 30t-51.5 11q-27 0 -51 -13t-42.5 -34 t-29 -48.5t-10.5 -55.5z" />
<glyph unicode="'" horiz-adv-x="291" d="M109 1081h73l-14 -344h-45z" />
<glyph unicode="(" horiz-adv-x="365" d="M72 449q0 373 196 653h51q-180 -290 -180 -653q0 -365 180 -654h-51q-196 280 -196 654z" />
<glyph unicode=")" horiz-adv-x="365" d="M43 -205q91 147 135.5 308t44.5 346q0 184 -44.5 345t-135.5 308h51q197 -281 197 -653q0 -373 -197 -654h-51z" />
<glyph unicode="*" horiz-adv-x="721" d="M113 872l22 66l199 -70l-8 213h69l-6 -213l199 70l22 -66l-202 -61l129 -172l-56 -43l-114 166l-125 -166l-56 43l129 172z" />
<glyph unicode="+" horiz-adv-x="778" d="M61 328v61h297v297h62v-297h297v-61h-297v-297h-62v297h-297z" />
<glyph unicode="," horiz-adv-x="303" d="M82 53q0 26 19.5 47t50.5 21q81 0 81 -92q0 -108 -131 -191l-20 21q88 55 106 143q-15 -12 -43 -12q-63 0 -63 63z" />
<glyph unicode="-" horiz-adv-x="475" d="M88 328v61h299v-61h-299z" />
<glyph unicode="." horiz-adv-x="303" d="M86 55q0 66 66 66q65 0 65 -66q0 -65 -65 -65q-66 0 -66 65z" />
<glyph unicode="/" horiz-adv-x="874" d="M37 -176l747 1358l52 -25l-744 -1360z" />
<glyph unicode="0" horiz-adv-x="778" d="M27 547q0 115 24.5 212.5t75.5 176.5q103 160 264 160q163 0 264 -162q97 -158 97 -387q0 -235 -95 -393q-101 -168 -266 -168q-164 0 -266 170q-51 81 -74.5 177.5t-23.5 213.5zM96 547q0 -103 20 -188.5t58 -157.5q83 -154 217 -154q136 0 215 154q74 143 74 346 q0 187 -74 330q-83 155 -215 155q-131 0 -217 -155q-38 -73 -58 -154.5t-20 -175.5z" />
<glyph unicode="1" horiz-adv-x="778" d="M195 1018l32 63h228v-1081h-66v1018h-194z" />
<glyph unicode="2" horiz-adv-x="778" d="M55 0l391 442q193 217 193 340q0 55 -19 101t-52.5 79t-79 51.5t-97.5 18.5q-53 0 -98.5 -19t-78.5 -53t-52 -81t-19 -103h-67q3 148 100 238q88 82 215 82q66 0 122 -21.5t101 -66.5q93 -87 93 -230q0 -94 -66 -198q-17 -25 -49 -66l-84 -100l-305 -353h506v-61h-654z " />
<glyph unicode="3" horiz-adv-x="778" d="M86 264h66q6 -49 24.5 -89t47 -68.5t67 -44t84.5 -15.5q99 0 170 74q71 77 71 178q0 51 -19 93.5t-51.5 73t-76.5 47.5t-94 17v64q47 0 88 17t71.5 47t48 71.5t17.5 89.5q0 46 -14 85t-41 67.5t-65.5 44.5t-86.5 16q-187 0 -203 -207h-65q11 129 81.5 200t188.5 71 q62 0 112.5 -21t86 -58t55 -88t19.5 -112q0 -168 -156 -252q172 -82 172 -262q0 -134 -88 -225q-89 -92 -219 -92q-60 0 -111.5 18.5t-93.5 56.5q-83 80 -86 203z" />
<glyph unicode="4" horiz-adv-x="778" d="M-4 205v8l604 905h8v-848h133v-65h-133v-205h-67v205h-545zM113 270h428v652z" />
<glyph unicode="5" horiz-adv-x="778" d="M35 166l57 37q22 -35 51 -63.5t62 -49t69 -32t72 -11.5q130 0 219 92q90 93 90 230q0 125 -90 215q-88 88 -215 88q-114 0 -227 -68v477h510v-63h-443v-322q96 37 175 37q75 0 138.5 -26t114.5 -80q103 -109 103 -260q0 -165 -111 -273q-108 -108 -266 -108 q-203 0 -309 180z" />
<glyph unicode="6" horiz-adv-x="778" d="M35 362q0 125 74 238l321 496l62 -29l-228 -350q38 14 71.5 20t59.5 6q146 0 246 -112q104 -113 104 -269q0 -144 -92 -253q-101 -123 -264 -123q-146 0 -252 108q-102 112 -102 268zM106 365q0 -133 82 -224q84 -92 201 -92q118 0 201 92q42 48 63 102.5t21 121.5 q0 66 -21 119.5t-63 101.5q-83 92 -201 92q-117 0 -201 -92q-82 -91 -82 -221z" />
<glyph unicode="7" horiz-adv-x="778" d="M2 12l672 1004h-617v65h740l-729 -1093z" />
<glyph unicode="8" horiz-adv-x="778" d="M82 283q0 188 174 280q-150 90 -150 246q0 123 82 205t201 82q121 0 203 -82t82 -205q0 -156 -148 -246q172 -94 172 -280q0 -127 -92 -213q-89 -84 -217 -84q-126 0 -217 84q-90 87 -90 213zM147 289q0 -98 72 -170t170 -72t170 72q74 71 74 170q0 97 -74 168 q-71 71 -170 71t-170 -71q-72 -72 -72 -168zM172 811q0 -45 17 -85t46 -69t69 -46t85 -17t85 17t70 46t47 69t17 85q0 91 -65 156t-154 65q-88 0 -153 -65q-64 -64 -64 -156z" />
<glyph unicode="9" horiz-adv-x="778" d="M37 719q0 156 104 266q108 111 252 111q148 0 250 -111q102 -108 102 -272q0 -120 -73 -232l-318 -493l-63 30l241 367q-46 -43 -147 -43q-141 0 -246 111q-102 114 -102 266zM109 719q0 -130 84 -221q83 -92 200 -92q114 0 197 92q84 93 84 221q0 129 -84 219 q-83 92 -197 92q-117 0 -200 -92q-84 -89 -84 -219z" />
<glyph unicode=":" horiz-adv-x="303" d="M86 55q0 66 66 66q65 0 65 -66q0 -65 -65 -65q-66 0 -66 65zM86 602q0 66 66 66q65 0 65 -66q0 -65 -65 -65q-66 0 -66 65z" />
<glyph unicode=";" horiz-adv-x="303" d="M82 53q0 26 19.5 47t50.5 21q81 0 81 -92q0 -108 -131 -191l-20 21q88 55 106 143q-15 -12 -43 -12q-63 0 -63 63zM86 602q0 66 66 66q65 0 65 -66q0 -65 -65 -65q-66 0 -66 65z" />
<glyph unicode="&#x3c;" horiz-adv-x="762" d="M61 326v75l637 318v-64l-571 -290l571 -310v-61z" />
<glyph unicode="=" horiz-adv-x="778" d="M61 236v61h656v-61h-656zM61 420v61h656v-61h-656z" />
<glyph unicode="&#x3e;" horiz-adv-x="762" d="M61 -6v61l574 310l-574 290v64l637 -318v-75z" />
<glyph unicode="?" horiz-adv-x="700" d="M45 834q0 113 86 190q87 78 213 78q130 0 213 -80q76 -76 76 -188q0 -90 -64 -172l-118 -132q-64 -76 -64 -145v-152h-65v156q0 94 120 223q123 129 123 224q0 81 -55 139q-60 63 -166 63q-49 0 -91 -15.5t-72.5 -42.5t-48 -64t-17.5 -80q0 -14 1.5 -29t6.5 -29l-68 -18 q-10 34 -10 74zM289 57q0 66 65 66q66 0 66 -66q0 -67 -66 -67q-65 0 -65 67z" />
<glyph unicode="@" horiz-adv-x="1130" d="M49 545q0 225 158 389q159 162 379 162q207 0 352 -133q143 -134 143 -330q0 -85 -26 -157.5t-80 -135.5q-108 -123 -227 -123q-91 0 -109 70q-85 -70 -186 -70q-45 0 -80.5 15.5t-60 43t-37.5 66.5t-13 86q0 162 94 295q104 149 254 149q103 0 172 -94l21 66h63 l-147 -465q-14 -42 -14 -60q0 -43 63 -43q88 0 170 121q84 121 84 240q0 175 -135 289q-128 110 -297 110q-198 0 -340 -151q-141 -152 -141 -350q0 -209 137 -351q138 -141 346 -141q265 0 391 197l82 2q-145 -256 -473 -256q-242 0 -393 151q-150 153 -150 408zM324 436 q0 -34 10 -63.5t29.5 -51.5t47.5 -34t64 -11q33 1 65.5 16.5t60 39.5t48 54t29.5 60l65 211q2 5 2 9v10q0 48 -38 88q-47 47 -109 47q-104 0 -192 -133q-42 -63 -62 -122.5t-20 -119.5z" />
<glyph unicode="A" horiz-adv-x="877" d="M-2 0l442 1116l437 -1116h-68l-141 356h-461l-139 -356h-70zM231 420h412l-205 534z" />
<glyph unicode="B" horiz-adv-x="788" d="M104 0v1081h248q144 0 219 -82q70 -76 70 -204q0 -141 -121 -220q50 -13 90 -38.5t67.5 -61t42.5 -80.5t15 -96q0 -127 -80 -207q-92 -92 -254 -92h-297zM170 61h215q142 0 219 74q64 61 64 164q0 227 -322 227h-176v-465zM170 590h174q109 0 169 57.5t60 157.5 q0 213 -245 213h-158v-428z" />
<glyph unicode="C" horiz-adv-x="1010" d="M41 539q0 250 162 405q158 152 387 152q107 0 209 -45q89 -41 139 -97v-94q-26 38 -64.5 70t-89.5 55q-100 47 -198 47q-202 0 -340 -141q-137 -137 -137 -359q0 -223 149 -360q137 -125 328 -125q204 0 354 170v-94q-72 -69 -160.5 -103t-191.5 -34q-234 0 -383 143 q-164 153 -164 410z" />
<glyph unicode="D" horiz-adv-x="889" d="M104 0v1081h199q273 0 420 -170q127 -145 127 -372q0 -114 -33.5 -206t-99.5 -167q-144 -166 -398 -166h-215zM170 61h141q108 0 193 35.5t151 104.5q127 133 127 338q0 111 -34 199.5t-97 150.5t-153 95.5t-201 33.5h-127v-957z" />
<glyph unicode="E" horiz-adv-x="688" d="M104 0v1081h502v-63h-436v-395h418v-64h-418v-498h436v-61h-502z" />
<glyph unicode="F" horiz-adv-x="602" d="M104 0v1081h426v-63h-360v-395h348v-64h-348v-559h-66z" />
<glyph unicode="G" horiz-adv-x="1130" d="M41 537q0 243 152 401q155 158 391 158q311 0 463 -252l-58 -41q-135 229 -405 229q-205 0 -340 -141q-135 -138 -135 -350q0 -200 139 -348q141 -146 336 -146q180 0 307 115q126 117 129 295h-434v63h501q2 -28 2 -54q0 -208 -139 -339q-144 -141 -370 -141 q-220 0 -379 164q-160 160 -160 387z" />
<glyph unicode="H" horiz-adv-x="958" d="M104 0v1081h66v-463h618v463h66v-1081h-66v553h-618v-553h-66z" />
<glyph unicode="I" horiz-adv-x="276" d="M104 0v1081h66v-1081h-66z" />
<glyph unicode="J" horiz-adv-x="287" d="M-178 -111l53 41q47 -92 129 -92q111 0 111 182v1061h67v-1061q0 -243 -184 -243q-118 0 -176 112z" />
<glyph unicode="K" horiz-adv-x="774" d="M104 0v1081h66v-473l500 473h88l-512 -485l547 -596h-91l-501 553l-31 -31v-522h-66z" />
<glyph unicode="L" horiz-adv-x="442" d="M104 0v1081h66v-1020h272v-61h-338z" />
<glyph unicode="M" horiz-adv-x="1231" d="M4 0l225 1116l387 -985l388 985l223 -1116h-66l-176 903l-367 -938l-370 938l-180 -903h-64z" />
<glyph unicode="N" horiz-adv-x="1155" d="M104 0v1096l881 -957v942h66v-1116l-881 963v-928h-66z" />
<glyph unicode="O" horiz-adv-x="1171" d="M41 541q0 228 160 391q81 81 176 122.5t209 41.5q112 0 206.5 -41.5t176.5 -122.5q161 -163 161 -391q0 -230 -161 -391q-164 -164 -383 -164q-224 0 -385 161q-160 163 -160 394zM109 541q0 -200 139 -348q141 -146 338 -146q193 0 336 146q141 147 141 348 q0 202 -141 346q-142 145 -336 145q-196 0 -338 -145q-139 -145 -139 -346z" />
<glyph unicode="P" horiz-adv-x="659" d="M104 0v1081h230q152 0 227 -82q70 -73 70 -204q0 -65 -21 -117t-60 -88.5t-94 -56t-122 -19.5h-164v-514h-66zM170 578h158q237 0 237 221q0 219 -227 219h-168v-440z" />
<glyph unicode="Q" horiz-adv-x="1171" d="M41 541q0 229 158 393q159 162 389 162q220 0 381 -162q161 -163 161 -389q0 -210 -151 -391l135 -154h-92l-90 115q-164 -129 -346 -129q-227 0 -385 161q-160 163 -160 394zM109 541q0 -204 141 -348q141 -146 340 -146q148 0 293 119l-262 276h92l217 -237 q133 160 133 327q0 105 -35 191.5t-104 161.5q-138 147 -336 147q-201 0 -340 -145t-139 -346z" />
<glyph unicode="R" horiz-adv-x="684" d="M104 0v1081h166q330 0 330 -286q0 -145 -94 -220q-77 -61 -205 -61l344 -514h-78l-340 514h-57v-514h-66zM170 571h125q83 0 145 39q92 59 92 187q0 221 -276 221h-86v-447z" />
<glyph unicode="S" horiz-adv-x="741" d="M53 217l60 29q79 -199 266 -199q101 0 172 74q70 76 70 184q0 107 -129 178l-271 148q-108 58 -108 190q0 59 20 109.5t55.5 87t84.5 57.5t108 21q176 0 260 -152l-51 -39q-76 127 -213 127q-43 0 -79.5 -16t-63 -44.5t-41.5 -66.5t-15 -82q0 -103 129 -170l221 -116 q160 -84 160 -238q0 -134 -92 -223q-89 -90 -221 -90q-235 0 -322 231z" />
<glyph unicode="T" horiz-adv-x="610" d="M0 1018v63h610v-63h-272v-1018h-66v1018h-272z" />
<glyph unicode="U" horiz-adv-x="901" d="M94 360v721h66v-702q0 -162 74.5 -247t216.5 -85q141 0 215.5 85t74.5 247v702h66v-721q0 -167 -86 -268q-94 -106 -270 -106q-88 0 -154.5 26t-114.5 80q-88 100 -88 268z" />
<glyph unicode="V" horiz-adv-x="754" d="M-4 1081h67l314 -923l313 923h68l-383 -1116z" />
<glyph unicode="W" horiz-adv-x="1423" d="M-2 1081h65l295 -925l357 979l352 -979l291 925h65l-354 -1116l-354 1002l-365 -1002z" />
<glyph unicode="X" horiz-adv-x="672" d="M4 0l293 551l-281 530h72l248 -463l242 463h73l-278 -530l293 -551h-72l-260 492l-256 -492h-74z" />
<glyph unicode="Y" horiz-adv-x="760" d="M-6 1081h74l311 -551l311 551h74l-350 -620v-461h-70v461z" />
<glyph unicode="Z" horiz-adv-x="774" d="M8 0l639 1018h-579v63h696l-639 -1020h625v-61h-742z" />
<glyph unicode="[" horiz-adv-x="401" d="M82 -229v1372h235v-72h-167v-1229h167v-71h-235z" />
<glyph unicode="\" horiz-adv-x="874" d="M41 1157l49 25l744 -1153l-50 -29z" />
<glyph unicode="]" horiz-adv-x="401" d="M82 -158h170v1229h-170v72h235v-1372h-235v71z" />
<glyph unicode="^" horiz-adv-x="844" d="M68 432l319 649h72l319 -649h-63l-293 584l-289 -584h-65z" />
<glyph unicode="_" horiz-adv-x="717" d="M8 -102h701v-56h-701v56z" />
<glyph unicode="`" horiz-adv-x="418" d="M96 995l86 29l140 -211l-52 -25z" />
<glyph unicode="a" horiz-adv-x="762" d="M37 336q0 73 23 135.5t64.5 108t100 71t129.5 25.5q155 0 250 -137v123h62v-662h-62v121q-92 -135 -248 -135q-144 0 -231 100q-88 100 -88 250zM100 336q0 -120 70 -205q71 -86 184 -86q118 0 189 90q65 83 65 207q0 58 -18.5 108.5t-52.5 87t-81.5 57.5t-105.5 21 q-107 0 -178 -86q-72 -84 -72 -194z" />
<glyph unicode="b" horiz-adv-x="762" d="M98 0v1141h62v-594q97 129 252 129q70 0 128.5 -25.5t99.5 -71t64 -108t23 -135.5q0 -150 -88 -250q-84 -100 -229 -100q-155 0 -250 137v-123h-62zM158 334q0 -121 67 -203q70 -88 187 -88q112 0 184 90q68 83 68 203q0 110 -72 194q-71 86 -178 86q-59 0 -106.5 -21 t-80.5 -58.5t-51 -89.5t-18 -113z" />
<glyph unicode="c" horiz-adv-x="647" d="M35 332q0 146 94 243q95 101 238 101q131 0 225 -82v-84q-103 106 -227 106q-114 0 -191 -86q-76 -82 -76 -198t76 -201q77 -86 188 -86q140 0 240 121v-86q-106 -94 -237 -94q-72 0 -130 24.5t-106 75.5q-94 100 -94 246z" />
<glyph unicode="d" horiz-adv-x="762" d="M35 336q0 73 23 135.5t64.5 108t100 71t129.5 25.5q155 0 250 -135v600h62v-1141h-62v121q-95 -135 -248 -135q-144 0 -231 100q-45 51 -66.5 113t-21.5 137zM98 336q0 -121 70 -203q72 -90 184 -90q118 0 189 90q65 83 65 209q0 58 -18.5 108.5t-52.5 87t-81.5 57.5 t-105.5 21q-107 0 -178 -86q-72 -84 -72 -194z" />
<glyph unicode="e" horiz-adv-x="692" d="M35 332q0 143 88 243q89 101 225 101q142 0 225 -101q85 -98 89 -249h-564q0 -64 19.5 -116t54 -88.5t81.5 -56.5t103 -20q149 0 226 150l53 -31q-96 -178 -287 -178q-140 0 -227 100q-86 101 -86 246zM98 385h496q-9 50 -30.5 92.5t-53.5 73t-72.5 48t-87.5 17.5 q-49 0 -92 -17.5t-76.5 -48.5t-55.5 -73.5t-28 -91.5z" />
<glyph unicode="f" horiz-adv-x="317" d="M27 602v60h71v245q0 244 170 244q33 0 72 -16v-58q-41 15 -68 15q-74 0 -98 -68q-14 -39 -14 -129v-233h164v-60h-164v-602h-62v602h-71z" />
<glyph unicode="g" horiz-adv-x="772" d="M35 -92h63q9 -104 82 -168q68 -59 168 -59q115 0 182 73q80 86 80 260v97q-89 -125 -254 -125q-137 0 -225 102q-86 104 -86 244q0 144 90 243q92 101 230 101q150 0 245 -125v111h64v-658q0 -199 -103 -299q-42 -42 -96.5 -62t-120.5 -20t-119 18.5t-98 55.5 q-93 78 -102 211zM109 336q0 -121 69 -205q71 -86 182 -86q119 0 191 90q65 83 65 207q0 58 -19 108.5t-53.5 88t-82 58.5t-105.5 21q-107 0 -178 -86q-69 -81 -69 -196z" />
<glyph unicode="h" horiz-adv-x="666" d="M98 0v1141h62v-578q65 113 196 113q116 0 166 -74q43 -64 43 -203v-399h-61v399q0 110 -25 156q-33 61 -129 61q-190 0 -190 -288v-328h-62z" />
<glyph unicode="i" horiz-adv-x="309" d="M96 862q0 60 60 60q57 0 57 -60q0 -59 -57 -59q-60 0 -60 59zM123 0v662h61v-662h-61z" />
<glyph unicode="j" horiz-adv-x="309" d="M96 862q0 60 60 60q57 0 57 -60q0 -59 -57 -59q-60 0 -60 59zM123 -387v1049h61v-1049h-61z" />
<glyph unicode="k" horiz-adv-x="578" d="M98 0v1141h62v-754l264 275h82l-268 -281l358 -381h-82l-317 340l-37 -41v-299h-62z" />
<glyph unicode="l" horiz-adv-x="260" d="M98 0v1141h62v-1141h-62z" />
<glyph unicode="m" horiz-adv-x="991" d="M98 0v662h62v-80q64 94 166 94q126 0 176 -119q65 119 184 119q207 0 207 -244v-432h-64v424q0 90 -22 135q-32 57 -115 57q-166 0 -166 -233v-383h-61v408q0 208 -143 208q-162 0 -162 -251v-365h-62z" />
<glyph unicode="n" horiz-adv-x="666" d="M98 0v662h62v-101q76 115 196 115q209 0 209 -252v-424h-61v403q0 106 -25 152q-32 63 -129 63q-190 0 -190 -290v-328h-62z" />
<glyph unicode="o" horiz-adv-x="762" d="M35 332q0 143 100 243q103 103 246 103q72 0 132.5 -26t111.5 -77t76.5 -111t25.5 -132q0 -143 -102 -246q-100 -100 -244 -100q-72 0 -133.5 24.5t-112.5 75.5q-100 100 -100 246zM92 332q0 -119 84 -203t203 -84t203 84t84 203t-84 203q-86 83 -203 83q-120 0 -203 -83 q-84 -84 -84 -203z" />
<glyph unicode="p" horiz-adv-x="762" d="M98 -387v1049h62v-119q88 133 250 133q145 0 233 -103q84 -99 84 -247q0 -75 -22.5 -137.5t-64 -107.5t-99.5 -70t-129 -25q-163 0 -252 131v-504h-62zM158 317q0 -59 18.5 -109t52 -86t80.5 -56.5t105 -20.5q108 0 178 82q72 84 72 197q0 118 -70 206q-69 88 -182 88 q-118 0 -189 -92q-65 -83 -65 -209z" />
<glyph unicode="q" horiz-adv-x="762" d="M35 324q0 149 88 249q88 103 231 103q156 0 248 -129v115h62v-1049h-62v498q-89 -125 -250 -125q-71 0 -129.5 25t-100 70t-64.5 107t-23 136zM98 317q0 -59 19 -109t53 -86t81.5 -56.5t104.5 -20.5q107 0 179 82q71 83 71 197q0 119 -67 204q-75 90 -187 90 q-117 0 -188 -92q-66 -84 -66 -209z" />
<glyph unicode="r" horiz-adv-x="371" d="M98 0v662h62v-95q39 109 143 109q29 0 70 -12l-33 -58q-30 10 -47 10q-91 0 -119 -102q-8 -26 -11 -69.5t-3 -106.5v-338h-62z" />
<glyph unicode="s" horiz-adv-x="504" d="M33 160l57 22q46 -139 162 -139q30 0 56.5 12t46 33t31 48.5t11.5 58.5q0 76 -82 116l-149 66q-82 46 -82 131q0 37 13.5 67.5t37.5 53t55.5 35t67.5 12.5q57 0 97.5 -26t66.5 -77l-53 -30q-37 73 -113 73q-21 0 -40.5 -8t-34.5 -22t-24.5 -32.5t-9.5 -39.5q0 -64 78 -98 l154 -70q80 -53 80 -153q0 -45 -16 -83t-43.5 -65.5t-65.5 -43t-82 -15.5q-41 0 -76 12t-63.5 34.5t-49 54.5t-30.5 73z" />
<glyph unicode="t" horiz-adv-x="274" d="M31 602v60h73v237h64v-237h115v-60h-115v-602h-64v602h-73z" />
<glyph unicode="u" horiz-adv-x="639" d="M90 225v437h62v-388q0 -54 7 -92.5t21 -64.5q40 -72 139 -72q102 0 142 70q26 52 26 159v388h64v-437q0 -108 -55 -170q-57 -69 -177 -69q-229 0 -229 239z" />
<glyph unicode="v" horiz-adv-x="586" d="M-2 662h65l234 -549l225 549h66l-293 -697z" />
<glyph unicode="w" horiz-adv-x="950" d="M-2 664h63l205 -537l209 571l209 -571l205 537h63l-268 -699l-209 572l-209 -572z" />
<glyph unicode="x" horiz-adv-x="600" d="M0 0l260 352l-237 310h71l207 -267l201 267h78l-236 -310l258 -352h-76l-227 305l-227 -305h-72z" />
<glyph unicode="y" horiz-adv-x="623" d="M-18 662h65l277 -601l243 601h64l-430 -1049h-64l152 373z" />
<glyph unicode="z" horiz-adv-x="651" d="M-4 0l526 602h-450v60h579l-522 -603h520v-59h-653z" />
<glyph unicode="{" horiz-adv-x="401" d="M51 428v61q101 77 101 166v252q0 62 9.5 106t32.5 72t61.5 42t96.5 16v-66q-135 -3 -135 -114v-269q0 -51 -6.5 -89t-20.5 -64q-19 -41 -77 -82v-2q104 -74 104 -244v-264q0 -115 135 -115v-63q-59 3 -97.5 16.5t-61.5 41t-32 70.5t-9 105v252q0 95 -101 172z" />
<glyph unicode="|" horiz-adv-x="428" d="M180 0v1141h68v-1141h-68z" />
<glyph unicode="}" horiz-adv-x="401" d="M49 -166q135 0 135 115v264q0 170 105 244v2q-28 20 -47.5 40t-30.5 42q-27 51 -27 153v269q0 111 -135 114v66q59 -2 98 -15t62 -41t32 -72t9 -108v-252q0 -88 100 -166v-61q-100 -76 -100 -172v-252q0 -62 -9 -105t-32 -70.5t-62 -41t-98 -16.5v63z" />
<glyph unicode="~" horiz-adv-x="844" d="M70 303q87 146 202 146q68 0 166 -56q51 -26 85.5 -39.5t54.5 -13.5q76 0 135 117l65 -35q-77 -156 -203 -156q-43 0 -153 56q-54 27 -91 41t-59 14q-68 0 -139 -107z" />
<glyph unicode="&#xa4;" horiz-adv-x="840" d="M8 164l148 145q-62 83 -62 193q0 114 62 188l-148 150l76 71l145 -145q80 59 193 59q55 0 105.5 -16t82.5 -43l150 145l71 -71l-145 -150q59 -80 59 -188q0 -113 -59 -193l145 -145l-71 -76l-150 148q-15 -13 -36 -23.5t-47 -20.5q-53 -18 -105 -18q-110 0 -193 62 l-145 -148zM197 502q0 -94 63 -164q65 -68 162 -68q92 0 158 68q63 63 63 164q0 46 -16.5 87t-45.5 72t-70 49.5t-89 18.5q-96 0 -160 -67q-65 -74 -65 -160z" />
<glyph unicode="&#xa9;" horiz-adv-x="1147" d="M18 543q0 227 162 391q163 162 395 162q117 0 213.5 -40.5t178.5 -121.5q161 -163 161 -391q0 -234 -161 -396q-163 -161 -392 -161t-393 164t-164 393zM88 543q0 -205 141 -346q142 -142 346 -142q201 0 343 142q141 141 141 346q0 201 -141 342q-143 141 -343 141 q-204 0 -346 -141q-141 -141 -141 -342zM285 537q0 136 90 231q45 48 101 71t122 23q60 0 113.5 -19t99.5 -61v-96q-104 107 -215 107q-100 0 -170 -76t-70 -180q0 -105 70 -181q71 -77 168 -77q120 0 227 120v-100q-105 -90 -225 -90q-66 0 -122 23t-101 71t-66.5 106 t-21.5 128z" />
<glyph unicode="&#xab;" horiz-adv-x="537" d="M41 459l203 241l41 -38l-168 -203l168 -203l-41 -39zM209 459l203 241l39 -38l-168 -203l168 -203l-39 -39z" />
<glyph unicode="&#xac;" horiz-adv-x="778" d="M51 297v90h676v-268h-82v178h-594z" />
<glyph unicode="&#xad;" horiz-adv-x="778" d="M61 328v61h656v-61h-656z" />
<glyph unicode="&#xae;" horiz-adv-x="1147" d="M18 543q0 227 162 391q163 162 395 162q117 0 213.5 -40.5t178.5 -121.5q161 -163 161 -391q0 -234 -161 -396q-163 -161 -392 -161t-393 164t-164 393zM88 543q0 -205 141 -346q142 -142 346 -142q201 0 343 142q141 141 141 346q0 201 -141 342q-143 141 -343 141 q-204 0 -346 -141q-141 -141 -141 -342zM373 227v607h264q215 0 215 -162q0 -163 -190 -166l184 -279h-88l-174 279h-142v-279h-69zM442 575h119q57 0 93.5 2t50.5 5q79 18 79 92q0 90 -163 90h-179v-189z" />
<glyph unicode="&#xb0;" horiz-adv-x="541" d="M66 713q0 40 15.5 77t42.5 64.5t63.5 44t78.5 16.5q43 0 80.5 -16t65 -43t43.5 -64t16 -79t-16 -79t-43.5 -64.5t-65 -43.5t-80.5 -16q-41 0 -77 15.5t-63.5 43t-43.5 64.5t-16 80zM121 713q0 -30 11.5 -57t31 -47t46 -32t56.5 -12q62 0 105 43q45 46 45 105 q0 30 -12 56.5t-32.5 46t-47.5 31t-58 11.5t-57.5 -11t-46 -30.5t-30.5 -46t-11 -57.5z" />
<glyph unicode="&#xb6;" horiz-adv-x="727" d="M0 858q0 153 94 229q90 66 248 66h389v-41h-102v-1356h-62v1356h-145v-1356h-55v805q-168 0 -263 62q-104 74 -104 235z" />
<glyph unicode="&#xb7;" horiz-adv-x="338" d="M96 449q0 30 20.5 50.5t53.5 20.5q31 0 51.5 -21.5t20.5 -49.5q0 -31 -21.5 -52.5t-50.5 -21.5q-33 0 -53.5 20.5t-20.5 53.5z" />
<glyph unicode="&#x2219;" horiz-adv-x="338" d="M96 449q0 30 20.5 50.5t53.5 20.5q31 0 51.5 -21.5t20.5 -49.5q0 -31 -21.5 -52.5t-50.5 -21.5q-33 0 -53.5 20.5t-20.5 53.5z" />
<glyph unicode="&#xbb;" horiz-adv-x="537" d="M88 256l168 203l-168 203l39 38l201 -241l-201 -242zM254 256l170 203l-170 203l39 38l201 -241l-201 -242z" />
<glyph unicode="&#xd7;" horiz-adv-x="778" d="M92 104l254 254l-254 254l43 43l254 -254l254 254l43 -43l-254 -254l254 -254l-43 -43l-254 254l-254 -254z" />
<glyph unicode="&#xf7;" horiz-adv-x="778" d="M61 328v61h656v-61h-656zM324 141q0 66 65 66q66 0 66 -66q0 -65 -66 -65q-65 0 -65 65zM324 575q0 66 65 66q66 0 66 -66q0 -65 -66 -65q-65 0 -65 65z" />
<glyph unicode="&#xe00;" horiz-adv-x="205" />
<glyph unicode="&#xe01;" horiz-adv-x="778" d="M72 0v668q112 166 317 166q132 0 221 -68q97 -70 97 -199v-567h-62v549q0 108 -76 168q-70 55 -180 55q-171 0 -256 -123v-649h-61z" />
<glyph unicode="&#xe02;" horiz-adv-x="707" d="M41 322q0 184 182 342l-94 133l51 34l123 -172q-201 -161 -201 -337q0 -59 18.5 -109.5t51.5 -87.5t78.5 -57.5t99.5 -20.5q49 0 90 16.5t70.5 46.5t46 71t16.5 89v549h62v-549q0 -62 -21 -114t-59 -89.5t-90.5 -59t-114.5 -21.5q-134 0 -221 94q-88 94 -88 242z" />
<glyph unicode="&#xe03;" horiz-adv-x="717" d="M20 786l33 43q70 -33 115 -84l82 74h61v-211q-198 -101 -198 -295q0 -58 18 -107t50.5 -84t78 -55t100.5 -20q49 0 90.5 16.5t71 46.5t46 71t16.5 89v549h61v-549q0 -62 -21 -114t-59 -89.5t-90.5 -59t-114.5 -21.5q-134 0 -223 92q-86 92 -86 235q0 199 199 322v117 l-88 -82q-13 18 -37 41q-47 46 -105 75z" />
<glyph unicode="&#xe04;" horiz-adv-x="778" d="M72 0v563q0 120 94 195q94 76 223 76t223 -76q95 -77 95 -195v-563h-62v563q0 47 -20.5 85.5t-55.5 66t-81.5 42.5t-98.5 15t-98.5 -15t-81.5 -42.5t-55.5 -66t-20.5 -85.5v-117h258v-61h-258v-385h-61z" />
<glyph unicode="&#xe05;" horiz-adv-x="819" d="M72 0v578q0 52 16.5 98.5t46 81.5t71 55.5t91.5 20.5l113 -134l112 134q100 0 166 -78q60 -75 60 -178v-578h-62v578q0 37 -11 71t-30 61t-45 44.5t-57 21.5l-133 -162l-134 162q-30 -4 -56.5 -21.5t-45.5 -44.5t-30 -61t-11 -71v-132h279v-61h-279v-385h-61z" />
<glyph unicode="&#xe06;" horiz-adv-x="788" d="M2 788l37 41q25 -17 45 -36t37 -39l90 65h61v-145q0 -41 -65 -86q-64 -46 -64 -96v-218q0 -93 86 -161q45 -32 91 -49t100 -17q51 0 94.5 15t74.5 42.5t48.5 66t17.5 85.5v563h62v-563q0 -60 -21.5 -108t-64.5 -87q-42 -38 -95 -56.5t-116 -18.5q-39 0 -80.5 9.5 t-79 26.5t-68 40.5t-49.5 52.5v-115h-61v504q0 57 63 102q66 48 66 82v66l-96 -74q-11 15 -39 42.5t-74 65.5z" />
<glyph unicode="&#xe07;" horiz-adv-x="737" d="M0 807l61 14l187 -764q87 -5 158 16.5t122 67t79 114t28 157.5q0 82 -22 146.5t-64.5 109.5t-104.5 68.5t-143 23.5h-25q-12 0 -26 -2v61q14 2 28 2h29q95 0 168 -28t122 -80.5t74 -128.5t25 -172q0 -98 -29 -174.5t-84 -130t-133 -81.5t-176 -28q-20 0 -38.5 1t-38.5 3z " />
<glyph unicode="&#xe08;" horiz-adv-x="752" d="M-4 690q132 144 342 144q170 0 270 -115q51 -57 77 -129.5t26 -163.5q0 -196 -129 -322q-128 -125 -332 -110l-98 440h-84v62h133l98 -443q151 -3 250 105q100 106 100 268q0 75 -21.5 137.5t-66.5 110.5q-86 98 -227 98q-166 0 -289 -123z" />
<glyph unicode="&#xe09;" horiz-adv-x="758" d="M10 401v62h123v-207q0 -47 16.5 -85.5t46.5 -66t71 -42.5t91 -15q51 0 96 17t87 49q84 69 84 161v289q0 91 -78 154q-76 55 -178 55q-89 0 -166 -41q-83 -47 -105 -117h-61q18 96 121 160q98 60 211 60q129 0 223 -76t94 -195v-522l21 -41h-82v115q-90 -129 -267 -129 q-62 0 -114.5 19.5t-90.5 55t-59.5 85t-21.5 110.5v145h-62z" />
<glyph unicode="&#xe0a;" horiz-adv-x="715" d="M72 29v790h61v-743q79 -32 180 -29q71 1 126.5 21t94 55.5t58.5 86t20 112.5q0 123 -77 206q-39 39 -89 66t-116 41l207 194l43 -36l-146 -140q240 -95 240 -331q0 -149 -92 -238q-51 -48 -117 -71t-154 -25q-133 -3 -239 41z" />
<glyph unicode="&#xe0b;" horiz-adv-x="735" d="M-8 788l37 41q47 -34 82 -75l90 65h61v-139q0 -37 -55 -92q-53 -56 -53 -105v-407q79 -32 180 -29q70 1 126 21t94 55.5t58.5 86t20.5 112.5q0 122 -78 206q-75 78 -205 107l207 194l43 -36l-145 -140q239 -95 239 -331q0 -149 -92 -238q-49 -48 -116 -71t-154 -25 q-132 -3 -240 41v469q0 29 13.5 55.5t39.5 52.5q56 53 56 82v66l-97 -74q-11 15 -38.5 42.5t-73.5 65.5z" />
<glyph unicode="&#xe0c;" horiz-adv-x="1311" d="M72 0v668q112 166 317 166q132 0 221 -68q97 -70 97 -199v-293q0 -94 79 -161q82 -66 177 -66q49 0 89 14.5t68 41.5t43 66t15 87v563h61v-563q0 -61 -20 -110.5t-56.5 -85t-87.5 -55t-112 -19.5q-168 0 -256 129v-115h-62v549q0 108 -76 168q-70 55 -180 55 q-171 0 -256 -123v-588h123v-61h-184z" />
<glyph unicode="&#xe0d;" horiz-adv-x="1311" d="M72 0v668q112 166 317 166q132 0 221 -68q97 -70 97 -199v-145q0 -94 69 -143q61 -46 162 -46q49 0 93 16t76.5 44t51.5 67t19 86v373h61v-563q0 -60 -23 -108t-69 -87q-89 -75 -219 -75q-187 0 -283 116l45 43q93 -98 236 -98q52 0 98 15t80 42.5t54 66t20 85.5v23 q-92 -107 -240 -107q-65 0 -119 17t-92.5 49t-60 78.5t-21.5 105.5v127q0 108 -76 168q-70 55 -180 55q-171 0 -256 -123v-588h123v-61h-184z" />
<glyph unicode="&#xe0e;" horiz-adv-x="788" d="M0 0v61h82v607q114 166 317 166q130 0 222 -68q96 -72 96 -199v-874h-62l-184 143l-184 -143h-287v61h276l195 148l184 -142v789q0 108 -75 168q-70 55 -181 55q-169 0 -256 -123v-649h-143z" />
<glyph unicode="&#xe0f;" horiz-adv-x="788" d="M-20 -246h190l137 135l113 -131l112 131l123 -118v778q0 108 -75 168q-70 55 -181 55q-169 0 -256 -123v-649h-143v61h82v607q114 166 317 166q130 0 222 -68q96 -72 96 -199v-874h-62l-123 123l-112 -133l-113 133l-123 -123h-204v61z" />
<glyph unicode="&#xe10;" horiz-adv-x="752" d="M-4 -246h170l137 135l113 -131l112 131l123 -118v123l-30 51h92v-252h-62l-123 123l-112 -133l-113 133l-123 -123h-184v61zM-4 690q132 144 342 144q110 0 190 -50l80 97l49 -37l-77 -94q131 -113 131 -324q0 -196 -129 -322q-128 -125 -332 -110l-100 450h-82v52h133 l98 -443q151 -3 250 105q100 106 100 268q0 75 -21.5 137.5t-66.5 110.5q-86 98 -227 98q-166 0 -289 -123z" />
<glyph unicode="&#xe11;" horiz-adv-x="788" d="M2 788l37 41q25 -17 45 -36t37 -39l90 65h61v-145q0 -41 -65 -86q-64 -46 -64 -96v-367l363 694q48 0 87 -16.5t66.5 -46t42.5 -70.5t15 -90v-596h-62v598q0 31 -9.5 60t-26 51.5t-37.5 35.5t-45 13l-394 -758h-61v504q0 57 63 102q66 48 66 82v66l-96 -74 q-11 15 -39 42.5t-74 65.5z" />
<glyph unicode="&#xe12;" horiz-adv-x="1356" d="M41 395q0 163 86 297q83 126 186 142l117 -134l109 129q48 0 87.5 -19.5t67.5 -54t43 -81t15 -101.5v-299q0 -94 79 -161q82 -66 177 -66q49 0 89 14.5t68 41.5t43 66t15 87v563h61v-563q0 -61 -20 -110.5t-56.5 -85t-87.5 -55t-112 -19.5q-168 0 -256 129v-115h-62v573 q0 37 -10 71.5t-27 61.5t-41.5 44.5t-52.5 21.5l-129 -158l-135 158q-65 -24 -123 -123q-70 -118 -70 -254q0 -72 14 -130.5t40 -106.5q59 -107 170 -107q69 0 114 64l49 -37q-63 -88 -163 -88q-140 0 -213 112q-35 54 -53.5 126.5t-18.5 166.5z" />
<glyph unicode="&#xe13;" horiz-adv-x="1311" d="M72 0v668q112 166 317 166q132 0 221 -68q97 -70 97 -199v-311q0 -48 15 -87t43 -66t67.5 -41.5t89.5 -14.5q93 0 176 66q80 68 80 161v545h61v-819h-61v115q-90 -129 -256 -129q-62 0 -112.5 19.5t-87.5 55t-57 85t-20 110.5v293q0 108 -76 168q-70 55 -180 55 q-171 0 -256 -123v-588h123v-61h-184z" />
<glyph unicode="&#xe14;" horiz-adv-x="782" d="M41 387q3 183 106 313q107 134 265 134q67 0 122 -21.5t94.5 -59.5t61 -90.5t21.5 -113.5v-549h-62v545q0 49 -17.5 90.5t-49 72t-75 47.5t-95.5 17q-135 0 -224 -119q-83 -110 -86 -266q-2 -72 12 -131t42 -104q59 -101 170 -101q69 0 114 64l49 -37q-63 -88 -163 -88 q-142 0 -215 112q-73 106 -70 285z" />
<glyph unicode="&#xe15;" horiz-adv-x="823" d="M41 395q3 163 86 297q83 126 186 142l117 -134l109 129q48 0 87.5 -19.5t67.5 -54t43 -81t15 -101.5v-573h-62v573q0 37 -10 71.5t-27 61.5t-41.5 44.5t-52.5 21.5l-129 -158l-135 158q-62 -25 -121 -123q-35 -60 -52.5 -122.5t-19.5 -131.5q-2 -75 12 -134t40 -105 q58 -105 172 -105q69 0 114 64l49 -37q-63 -88 -163 -88q-139 0 -215 112q-36 54 -54 126.5t-16 166.5z" />
<glyph unicode="&#xe16;" horiz-adv-x="778" d="M72 0v668q112 166 317 166q132 0 221 -68q97 -70 97 -199v-567h-62v549q0 108 -76 168q-70 55 -180 55q-171 0 -256 -123v-588h123v-61h-184z" />
<glyph unicode="&#xe17;" horiz-adv-x="778" d="M72 0v819h61v-114q19 28 50 51.5t68.5 41t79.5 27t83 9.5q64 0 117.5 -19.5t92.5 -55.5t61 -87t22 -113v-559h-62v543q0 51 -17 93.5t-47.5 72.5t-73 46.5t-93.5 16.5q-100 0 -189 -65q-92 -72 -92 -162v-545h-61z" />
<glyph unicode="&#xe18;" horiz-adv-x="713" d="M47 635q0 85 94 143q92 53 203 53q60 0 111 -12.5t94 -38.5q94 -58 123 -166h-68q-27 70 -108 117q-39 20 -78.5 29.5t-81.5 9.5q-81 0 -152 -41q-69 -41 -69 -86q0 -53 84 -84q23 -8 65 -17t105 -20q305 -50 305 -274q0 -126 -107 -197q-49 -32 -110.5 -47.5 t-137.5 -15.5q-129 0 -258 41v391l62 20v-360q45 -17 93.5 -25t102.5 -8q117 0 199 49q92 53 92 152q0 171 -254 215q-81 14 -133.5 26t-77.5 23q-98 41 -98 123z" />
<glyph unicode="&#xe19;" horiz-adv-x="778" d="M72 256v563h61v-563q0 -47 17.5 -85.5t49 -66t74.5 -42.5t95 -15q103 0 190 66q86 68 86 161v545h62v-819h-62v115q-19 -29 -49.5 -52.5t-67.5 -40.5t-78 -26.5t-81 -9.5q-63 0 -116.5 18.5t-96.5 56.5q-42 39 -63 87t-21 108z" />
<glyph unicode="&#xe1a;" horiz-adv-x="778" d="M72 256v563h61v-563q0 -47 20.5 -85.5t55.5 -66t81.5 -42.5t98.5 -15t98.5 15t81.5 42.5t55.5 66t20.5 85.5v563h62v-563q0 -118 -95 -195q-93 -75 -223 -75t-223 75q-48 39 -71 87t-23 108z" />
<glyph unicode="&#xe1b;" horiz-adv-x="778" d="M72 256v563h61v-563q0 -47 20.5 -85.5t55.5 -66t81.5 -42.5t98.5 -15t98.5 15t81.5 42.5t55.5 66t20.5 85.5v768h62v-768q0 -118 -95 -195q-93 -75 -223 -75t-223 75q-48 39 -71 87t-23 108z" />
<glyph unicode="&#xe1c;" horiz-adv-x="983" d="M0 819h201v-61h-123l166 -656l219 717h55l223 -717l181 717h59l-211 -819h-53l-228 717l-223 -717h-51z" />
<glyph unicode="&#xe1d;" horiz-adv-x="983" d="M0 819h201v-61h-123l166 -656l219 717h55l223 -717l234 922h59l-264 -1024h-53l-228 717l-223 -717h-51z" />
<glyph unicode="&#xe1e;" horiz-adv-x="983" d="M0 819h59l185 -717l219 717h55l223 -717l181 717h59l-211 -819h-53l-228 717l-223 -717h-51z" />
<glyph unicode="&#xe1f;" horiz-adv-x="983" d="M0 819h59l185 -717l219 717h55l223 -717l234 922h59l-264 -1024h-53l-228 717l-223 -717h-51z" />
<glyph unicode="&#xe20;" horiz-adv-x="788" d="M0 0v61h82v607q114 166 317 166q130 0 222 -68q96 -72 96 -199v-567h-62v549q0 108 -75 168q-70 55 -181 55q-169 0 -256 -123v-649h-143z" />
<glyph unicode="&#xe21;" horiz-adv-x="778" d="M72 0v819h61v-545q0 -93 86 -161q87 -66 191 -66q51 0 94.5 15t74.5 42.5t48.5 66t17.5 85.5v563h62v-563q0 -60 -21.5 -108t-64.5 -87q-42 -38 -95 -56.5t-116 -18.5q-40 0 -81 9.5t-78.5 26.5t-68 40.5t-49.5 52.5v-115h-61z" />
<glyph unicode="&#xe22;" horiz-adv-x="776" d="M41 254q0 43 15.5 83t47.5 75q51 57 115 75q-33 3 -62 15.5t-51 33.5t-34.5 49t-12.5 62q0 39 18 72.5t49 58t73 38t90 13.5q60 0 102 -14v-61q-42 14 -100 14q-35 0 -65 -8.5t-52.5 -24.5t-35.5 -38t-13 -50q0 -63 61 -96q55 -31 129 -31h76v-61h-57q-86 0 -154 -56 q-74 -57 -74 -147q0 -46 20.5 -84t57.5 -65.5t89.5 -42.5t117.5 -15q148 0 252 92v678h62v-706q-107 -125 -314 -125q-164 0 -260 78q-90 72 -90 188z" />
<glyph unicode="&#xe23;" horiz-adv-x="725" d="M41 250h61q0 -98 80 -154q35 -26 80.5 -38.5t99.5 -12.5t98 12.5t81 38.5q82 58 82 154q0 132 -250 178q-78 14 -130 27.5t-81 25.5q-103 46 -103 133q0 48 23 87t68 71q43 29 92.5 43t109.5 14q121 0 207 -53q97 -58 115 -162h-66q-21 77 -100 117q-67 37 -156 37 q-84 0 -155 -41q-72 -41 -72 -104q0 -58 86 -93q20 -8 62.5 -17.5t111.5 -23.5q299 -57 299 -239q0 -125 -98 -199q-88 -67 -224 -67q-135 0 -223 67q-98 74 -98 199z" />
<glyph unicode="&#xe24;" horiz-adv-x="778" d="M72 0v668q112 166 317 166q132 0 221 -68q97 -70 97 -199v-874h-62v856q0 108 -76 168q-70 55 -180 55q-171 0 -256 -123v-588h123v-61h-184z" />
<glyph unicode="&#xe25;" horiz-adv-x="797" d="M41 242q0 66 22.5 119.5t67.5 101.5q93 94 248 94q175 0 285 -119v125q0 93 -82 154q-76 55 -181 55q-43 0 -83.5 -12t-75 -33t-60 -50t-37.5 -63h-65q14 48 43.5 87.5t77.5 70.5q95 62 207 62q129 0 223 -76t94 -195v-563h-61v332q-16 36 -44.5 66t-66 52t-82 34 t-92.5 12q-64 0 -115 -20t-87 -54.5t-55.5 -81t-19.5 -98.5q0 -38 12.5 -72.5t35 -61t52 -42t64.5 -15.5q64 0 105 29l37 -49q-59 -41 -142 -41q-100 0 -164 78q-61 70 -61 174z" />
<glyph unicode="&#xe26;" horiz-adv-x="788" d="M0 0v61h82v607q114 166 317 166q130 0 222 -68q96 -72 96 -199v-874h-62v856q0 108 -75 168q-70 55 -181 55q-169 0 -256 -123v-649h-143z" />
<glyph unicode="&#xe27;" horiz-adv-x="721" d="M37 213h63q13 -38 37.5 -68.5t57 -52t70.5 -33.5t77 -12q130 0 207 113q69 100 69 250q0 149 -69 249q-77 113 -207 113q-39 0 -76.5 -12t-69.5 -34t-56.5 -52.5t-37.5 -67.5h-65q13 50 43 92t70.5 72t90 47t101.5 17q158 0 252 -127q86 -122 86 -297t-86 -297 q-94 -127 -252 -127q-52 0 -101.5 17t-90.5 47t-70.5 71.5t-42.5 91.5z" />
<glyph unicode="&#xe28;" horiz-adv-x="778" d="M72 0v563q0 120 94 195q94 76 223 76q42 0 80.5 -9t75.5 -26l69 82l50 -37l-64 -76q107 -80 107 -205v-563h-62v563q0 47 -20.5 85.5t-55.5 66t-81.5 42.5t-98.5 15t-98.5 -15t-81.5 -42.5t-55.5 -66t-20.5 -85.5v-117h258v-61h-258v-385h-61z" />
<glyph unicode="&#xe29;" horiz-adv-x="788" d="M72 256v563h61v-563q0 -47 20.5 -85.5t55.5 -66t81.5 -42.5t98.5 -15t98.5 15t81.5 42.5t55.5 66t20.5 85.5v147h-237v93l51 -31h186v354h62v-354h81v-62h-81v-147q0 -118 -95 -195q-93 -75 -223 -75t-223 75q-48 39 -71 87t-23 108z" />
<glyph unicode="&#xe2a;" horiz-adv-x="797" d="M41 242q0 66 22.5 119.5t67.5 101.5q93 94 248 94q175 0 285 -119v125q0 93 -82 154q-76 55 -181 55q-43 0 -83.5 -12t-75 -33t-60 -50t-37.5 -63h-65q14 48 43.5 87.5t77.5 70.5q95 62 207 62q42 0 80.5 -9t76.5 -26l68 82l49 -37l-64 -76q107 -80 107 -205v-563h-61 v332q-16 36 -44.5 66t-66 52t-82 34t-92.5 12q-64 0 -115 -20t-87 -54.5t-55.5 -81t-19.5 -98.5q0 -38 12.5 -72.5t35 -61t52 -42t64.5 -15.5q64 0 105 29l37 -49q-59 -41 -142 -41q-100 0 -164 78q-61 70 -61 174z" />
<glyph unicode="&#xe2b;" horiz-adv-x="788" d="M72 0v819h61v-309l508 309l47 -33l-215 -135q56 -6 103 -26t80.5 -51.5t52 -74t18.5 -93.5v-406h-61v403q0 85 -72 142q-69 57 -166 57q-21 0 -41 -4l-254 -158v-440h-61z" />
<glyph unicode="&#xe2c;" horiz-adv-x="983" d="M0 819h59l185 -717l219 717h55l223 -717l127 502q6 25 6 47q0 117 -131 117h-71v51h82q168 0 198 105l29 100h61l-32 -115q-29 -101 -144 -129q68 -45 68 -114q0 -14 -1.5 -28t-6.5 -30l-156 -608h-53l-228 717l-223 -717h-51z" />
<glyph unicode="&#xe2d;" horiz-adv-x="852" d="M41 410q0 15 6 71h262v-61h-207v-10q0 -159 91 -260q91 -103 233 -103q143 0 231 103q93 100 93 260q0 157 -91 260q-90 102 -233 102q-214 0 -293 -199h-65q19 61 53 109t80 82t103 52t122 18q172 0 279 -119q106 -118 106 -305q0 -188 -106 -306q-108 -118 -279 -118 t-279 118q-106 118 -106 306z" />
<glyph unicode="&#xe2e;" horiz-adv-x="852" d="M41 410q0 15 6 71h262v-61h-207v-10q0 -159 91 -260q91 -103 233 -103q143 0 231 103q93 100 93 260q0 157 -91 260q-90 102 -233 102q-214 0 -293 -199h-65q19 61 53 109t80 82t103 52t122 18q89 0 172 -39l70 86l45 -33l-66 -82q164 -114 164 -356q0 -188 -106 -306 q-108 -118 -279 -118t-279 118q-106 118 -106 306z" />
<glyph unicode="&#xe2f;" horiz-adv-x="770" d="M41 651q0 39 17 72t47 56.5t71.5 36.5t89.5 13q29 0 55 -3t48 -11v-61q-48 16 -101 16q-35 0 -65 -8t-52.5 -23.5t-35.5 -37.5t-13 -50q0 -29 16 -52.5t44 -40.5t64 -26.5t77 -9.5q69 0 128 17t110 49q34 21 58 45.5t38 50.5v135h61v-819h-61v598q-107 -131 -336 -131 q-61 0 -109 14t-81.5 39t-51.5 58.5t-18 72.5z" />
<glyph unicode="&#xe30;" horiz-adv-x="266" d="M41 102v115h61v-55h134v-60h-195zM41 602v115h61v-55h134v-60h-195z" />
<glyph unicode="&#xe31;" d="M-338 922v122h62v-61h471v-61h-533z" />
<glyph unicode="&#xe32;" horiz-adv-x="539" d="M20 727v64q42 21 81 32t81 11q139 0 217 -84q68 -80 68 -203v-547h-61v528q0 117 -57 182.5t-169 65.5q-99 0 -160 -49z" />
<glyph unicode="&#xe33;" horiz-adv-x="539" d="M-190 1008q0 18 7 34t19 28t28 19t34 7t34 -7t28 -19t19 -28t7 -34t-7 -33.5t-19 -27t-28 -18.5t-34 -7t-34 7t-28 18.5t-19 27t-7 33.5zM-147 1008q0 -43 43 -43t43 43t-43 43t-43 -43zM20 727v64q42 21 81 32t81 11q139 0 217 -84q68 -80 68 -203v-547h-61v528 q0 117 -57 182.5t-169 65.5q-99 0 -160 -49z" />
<glyph unicode="&#xe34;" d="M-666 922v61h594v-61h-594z" />
<glyph unicode="&#xe35;" d="M-666 922v61h533v102h61v-163h-594z" />
<glyph unicode="&#xe36;" d="M-666 922v61h480q-4 15 -4 25q0 18 7 34t19 28t28 19t34 7t34 -7t28 -19t19 -28t7 -34t-7 -33.5t-19 -27t-28 -18.5t-34 -7h-564zM-147 1008q0 -43 43 -43t43 43t-43 43t-43 -43z" />
<glyph unicode="&#xe37;" d="M-666 922v61h410v102h61v-102h62v102h61v-163h-594z" />
<glyph unicode="&#xe38;" d="M-215 -82h143v-225h-61v164h-82v61z" />
<glyph unicode="&#xe39;" d="M-420 -82h123v-145q22 -33 82 -33q16 0 31 5.5t26 15t18 23t7 28.5v106h61v-108q0 -27 -11.5 -49.5t-32 -39t-47 -25.5t-56.5 -9q-94 0 -139 65v105h-62v61z" />
<glyph unicode="&#xe3a;" d="M-158 -137q0 55 56 55q55 0 55 -55q0 -56 -55 -56q-56 0 -56 56z" />
<glyph unicode="&#xe3f;" horiz-adv-x="788" d="M104 0v1081h222v164h63v-166q252 -21 252 -284q0 -141 -121 -220q50 -13 90 -38.5t67.5 -61t42.5 -80.5t15 -96q0 -127 -80 -207q-92 -92 -254 -92h-12v-174h-63v174h-222zM170 61h156v465h-156v-465zM170 590h156v428h-156v-428zM389 61q141 3 215 74q64 64 64 164 q0 212 -279 227v-465zM389 592q184 27 184 213q0 181 -184 209v-422z" />
<glyph unicode="&#xe40;" horiz-adv-x="246" d="M92 0v819h62v-819h-62z" />
<glyph unicode="&#xe41;" horiz-adv-x="430" d="M92 0v819h62v-819h-62zM276 0v819h62v-819h-62z" />
<glyph unicode="&#xe42;" horiz-adv-x="266" d="M-41 1161q0 25 12 45.5t32.5 34.5t47.5 21.5t58 7.5h251v-62h-264q-76 0 -76 -47q0 -26 39 -53q31 -20 49.5 -34t26.5 -21q39 -39 39 -109v-944h-61v946q0 32 -20 60.5t-58 54.5q-76 52 -76 100z" />
<glyph unicode="&#xe43;" horiz-adv-x="266" d="M-111 1112q0 34 16 65t43 53.5t63 36t77 13.5t76 -12t60.5 -33t40 -49.5t14.5 -61.5q0 -53 -54 -104q-51 -48 -51 -102v-918h-61v928q0 63 51 110q53 50 53 82q0 45 -36 75t-93 30q-29 0 -53.5 -8.5t-43.5 -24t-29.5 -36t-10.5 -44.5h-62z" />
<glyph unicode="&#xe44;" horiz-adv-x="266" d="M-125 1231l37 43l139 -111l115 94l102 -124q-94 -84 -94 -185v-948h-61v934q0 115 90 186l-49 58l-103 -88z" />
<glyph unicode="&#xe45;" horiz-adv-x="539" d="M20 727v64q42 21 81 32t81 11q139 0 217 -84q68 -80 68 -203v-854h-61v835q0 117 -57 182.5t-169 65.5q-99 0 -160 -49z" />
<glyph unicode="&#xe46;" horiz-adv-x="776" d="M41 475v119q0 53 16 96.5t45.5 74t70.5 47.5t91 17l109 -112l108 112q49 0 90.5 -17t71 -47.5t46 -74t16.5 -96.5v-901h-62v901q0 158 -137 182l-133 -141l-133 141q-138 -24 -138 -182v-57h168v-62h-229z" />
<glyph unicode="&#xe47;" d="M-623 922v57q0 156 191 156h362v-56h-368q-123 0 -123 -92v-8h88l113 68l106 -68h119v-57h-127l-98 65l-101 -65h-162z" />
<glyph unicode="&#xe48;" d="M-133 1147v143h61v-143h-61z" />
<glyph unicode="&#xe49;" d="M-291 1225v57h35q82 0 82 -61v-17h246v-57h-305v37q0 41 -37 41h-21z" />
<glyph unicode="&#xe4a;" d="M-309 1147v67q0 51 35 81t92 30h8l70 -63l71 63h6q57 0 93 -30t36 -81v-10h131v-57h-188v57q0 64 -65 64h-7l-77 -70l-78 70h-4q-66 0 -66 -64v-2h78v-55h-135z" />
<glyph unicode="&#xe4b;" d="M-205 1212v50h72v65h61v-65h72v-50h-72v-65h-61v65h-72z" />
<glyph unicode="&#xe4c;" d="M-205 1065v35q0 92 96 92h89v-53h-60q-63 0 -63 -45v-29h-62z" />
<glyph unicode="&#xe4d;" d="M-190 1008q0 18 7 34t19 28t28 19t34 7t34 -7t28 -19t19 -28t7 -34t-7 -33.5t-19 -27t-28 -18.5t-34 -7t-34 7t-28 18.5t-19 27t-7 33.5zM-147 1008q0 -43 43 -43t43 43t-43 43t-43 -43z" />
<glyph unicode="&#xe4e;" d="M-477 1016q0 62 63 106q29 20 59 29.5t62 9.5q-55 28 -55 92q0 162 360 162v-55q-8 2 -20 2h-27q-42 0 -78.5 -5t-70.5 -16q-99 -30 -99 -90q0 -65 121 -65v-53q-81 0 -151 -21q-101 -27 -101 -88q0 -49 72 -49q47 0 111 29l26 -48q-93 -34 -139 -34q-48 0 -88 22 q-45 28 -45 72z" />
<glyph unicode="&#xe4f;" horiz-adv-x="963" d="M61 410q0 174 123 297q125 122 297 122t297 -122q123 -123 123 -297t-123 -297t-297 -123t-297 123t-123 297zM123 410q0 -147 104 -254q108 -105 254 -105q148 0 252 105q107 107 107 254q0 148 -107 252q-103 106 -252 106q-148 0 -254 -106q-104 -107 -104 -252z M225 410q0 106 74 180q76 76 182 76t181 -76q75 -72 75 -180q0 -107 -75 -183q-73 -73 -181 -73q-106 0 -182 73q-37 39 -55.5 84t-18.5 99z" />
<glyph unicode="&#xe50;" horiz-adv-x="721" d="M41 307q0 134 94 225q95 95 225 95q134 0 226 -95q94 -91 94 -225q0 -131 -94 -225q-91 -94 -226 -94q-66 0 -121.5 23t-103.5 71q-94 94 -94 225zM96 307q0 -110 76 -186t186 -76q109 0 185 76q78 78 78 186q0 54 -20 100t-58 85q-77 77 -185 77q-109 0 -186 -77 q-76 -76 -76 -185z" />
<glyph unicode="&#xe51;" horiz-adv-x="770" d="M41 330q0 130 104 217q101 80 232 80q75 0 137 -21.5t113 -64.5q102 -89 102 -228q0 -151 -127 -272q-113 -104 -262 -125l-29 55q69 8 128.5 34.5t113.5 74.5q115 100 115 233q0 113 -84 185q-86 71 -205 71q-113 0 -195 -69q-82 -67 -82 -170q0 -38 13 -71.5t35.5 -59 t54 -40t69.5 -14.5q37 0 54 7q-86 30 -86 122q0 28 10.5 52.5t28.5 42.5t42 28.5t52 10.5t52 -10.5t42 -28.5t28.5 -42.5t10.5 -52.5q0 -41 -18.5 -76t-50 -60.5t-74.5 -40.5t-91 -15q-51 0 -94 19t-74 52.5t-48 78.5t-17 98zM297 274q0 -32 23 -54.5t55 -22.5t55 22.5 t23 54.5t-23 55t-55 23t-55 -23t-23 -55z" />
<glyph unicode="&#xe52;" horiz-adv-x="1087" d="M-137 836l49 41q75 -73 128 -160t85 -195q29 -94 49.5 -207t34.5 -254h745v375q0 30 -10 53.5t-27 40t-40 25t-48 8.5q-81 0 -131 -80v-329h-61v331q-53 78 -143 78q-32 0 -60 -11t-49.5 -30.5t-34 -46t-12.5 -57.5v-31q33 21 72 21q27 0 51.5 -10.5t42.5 -28.5 t28.5 -42.5t10.5 -52.5q0 -27 -10.5 -51t-28.5 -42t-42.5 -28t-51.5 -10q-28 0 -52.5 10t-42.5 28t-28.5 42t-10.5 51v144q0 44 17.5 82t47.5 65.5t69.5 43.5t83.5 16q105 0 174 -78q66 78 161 78q38 0 72 -13t59.5 -36.5t40.5 -56.5t15 -73v-446h-862q-12 151 -33.5 274.5 t-56 225.5t-84 185t-117.5 151zM332 274q0 -32 23 -54.5t55 -22.5t54.5 22.5t22.5 54.5t-22.5 55t-54.5 23t-55 -23t-23 -55z" />
<glyph unicode="&#xe53;" horiz-adv-x="924" d="M72 121v297q0 90 69 147q72 60 158 60q115 0 184 -78q66 78 172 78q39 0 75 -13t63 -36.5t43 -56.5t16 -73v-446h-61v436q0 28 -11 51.5t-30 40.5t-43.5 26t-51.5 9q-94 0 -141 -80v-483h-61v485q-53 78 -154 78q-32 0 -61.5 -11t-53 -30.5t-37.5 -46t-14 -57.5v-185 q17 11 35 16t37 5q28 0 52 -10.5t42 -28.5t28.5 -42t10.5 -52t-10.5 -52t-28.5 -41.5t-42 -27.5t-52 -10t-52 10t-42 27.5t-28.5 41.5t-10.5 52zM127 121q0 -32 23 -55t55 -23t55 23t23 55t-23 55t-55 23t-55 -23t-23 -55z" />
<glyph unicode="&#xe54;" horiz-adv-x="831" d="M41 287q-3 137 96 233q51 48 109 71t127 23h282q109 0 115 246h61q2 -63 -7 -113t-27 -92q-47 -102 -142 -102h-282q-114 0 -193 -76q-81 -78 -78 -190t82 -181q71 -59 172 -59q26 0 55.5 3t61.5 11q68 17 88 17q-24 12 -45.5 30t-38.5 41t-27 49t-10 54t11 53.5 t29.5 44.5t43 30t51.5 11q28 0 52.5 -10.5t42.5 -28.5t28.5 -42t10.5 -52q0 -25 -9.5 -48t-26.5 -41t-39.5 -29t-49.5 -13q23 -26 106 -41l70 -14q20 -7 35 -14.5t26 -18.5l-39 -49q-32 20 -72.5 29.5t-91.5 9.5q-17 0 -45.5 -5t-70.5 -16q-84 -18 -154 -18q-123 0 -209 71 q-48 42 -72 97.5t-26 128.5zM498 258q0 -32 22.5 -55t54.5 -23t55 23t23 55t-23 55t-55 23t-54.5 -23t-22.5 -55z" />
<glyph unicode="&#xe55;" horiz-adv-x="831" d="M41 287q-1 61 19 115t56 96t85.5 70.5t107.5 39.5q-33 34 -33 84q0 28 11.5 53t31 44t45 29.5t54.5 10.5q28 0 54 -10t45 -28.5t30.5 -43.5t11.5 -55q0 -38 -24 -78h120q109 0 115 246h61q2 -63 -7 -113t-27 -92q-47 -102 -142 -102h-282q-114 0 -193 -76 q-81 -78 -78 -190t82 -181q71 -59 172 -59q26 0 55.5 3t61.5 11q68 17 88 17q-24 12 -45.5 30t-38.5 41t-27 49t-10 54t11 53.5t29.5 44.5t43 30t51.5 11q28 0 52.5 -10.5t42.5 -28.5t28.5 -42t10.5 -52q0 -25 -9.5 -48t-26.5 -41t-39.5 -29t-49.5 -13q23 -26 106 -41 l70 -14q20 -7 35 -14.5t26 -18.5l-39 -49q-32 20 -72.5 29.5t-91.5 9.5q-17 0 -45.5 -5t-70.5 -16q-84 -18 -154 -18q-123 0 -209 71q-48 42 -72 97.5t-26 128.5zM336 692q0 -16 7 -31t18 -26t26 -18t31 -7q18 0 33 7t26 18t17 26t6 31q0 35 -23.5 58.5t-58.5 23.5 q-16 0 -31 -6t-26 -17t-18 -26t-7 -33zM498 258q0 -32 22.5 -55t54.5 -23t55 23t23 55t-23 55t-55 23t-54.5 -23t-22.5 -55z" />
<glyph unicode="&#xe56;" horiz-adv-x="778" d="M-84 803l47 39q143 -125 178 -303q113 86 258 86q146 0 240 -88q98 -89 98 -226q0 -140 -102 -233q-101 -92 -252 -92q-137 0 -227 75q-86 71 -86 166q0 28 10.5 53t29 43t43 28.5t52.5 10.5t52 -10.5t42 -28.5t28.5 -42t10.5 -52q0 -25 -9 -48t-25.5 -41t-39 -29 t-49.5 -13q63 -51 168 -51q61 0 114.5 19.5t93.5 54.5t62.5 83.5t22.5 106.5q0 109 -82 181q-83 71 -195 71q-142 0 -252 -104l-61 16q-35 199 -170 328zM127 229q0 -32 23 -54.5t55 -22.5t55 22.5t23 54.5t-23 55t-55 23t-55 -23t-23 -55z" />
<glyph unicode="&#xe57;" horiz-adv-x="1116" d="M72 121v297q0 90 69 147q72 60 158 60q115 0 184 -78q66 78 172 78q39 0 75 -13t63 -36.5t43 -56.5t16 -73v-395q25 0 49 9t42 25.5t29 39.5t11 51v463q0 105 100 205l50 -37q-89 -68 -89 -176v-447q0 -48 -18.5 -85t-52 -61.5t-80 -36t-102.5 -9.5v444q0 28 -11 51.5 t-30 40.5t-43.5 26t-51.5 9q-94 0 -141 -80v-483h-61v485q-53 78 -154 78q-32 0 -61.5 -11t-53 -30.5t-37.5 -46t-14 -57.5v-185q17 11 35 16t37 5q28 0 52 -10.5t42 -28.5t28.5 -42t10.5 -52t-10.5 -52t-28.5 -41.5t-42 -27.5t-52 -10t-52 10t-42 27.5t-28.5 41.5t-10.5 52 zM127 121q0 -32 23 -55t55 -23t55 23t23 55t-23 55t-55 23t-55 -23t-23 -55z" />
<glyph unicode="&#xe58;" horiz-adv-x="858" d="M41 303q0 140 117 229q117 93 293 93q139 0 229 -31q74 114 84 248l61 -4q-6 -85 -36 -162.5t-84 -153.5q-117 41 -256 41q-73 0 -134 -18.5t-112 -57.5q-101 -74 -101 -184q0 -90 58 -160q23 -31 50.5 -51t59.5 -31l144 170l178 -168q26 14 48.5 29.5t39.5 32.5 q-43 6 -71.5 39t-28.5 78q0 24 9.5 45.5t25.5 37.5t37.5 25.5t45.5 9.5q25 0 46.5 -10t37.5 -26.5t25.5 -39t9.5 -46.5q0 -133 -242 -250l-157 149l-125 -149q-110 27 -178 110q-37 45 -55.5 95t-18.5 110zM635 242q0 -64 63 -64q64 0 64 64q0 63 -64 63q-63 0 -63 -63z" />
<glyph unicode="&#xe59;" horiz-adv-x="922" d="M41 313q0 134 90 226q90 90 219 90q144 0 246 -117q37 117 149 117q64 0 105 -51q41 85 41 213v29q0 14 -2 28h61q2 -17 3 -32.5t1 -31.5q0 -103 -27.5 -181t-84.5 -132q-14 48 -37.5 72t-59.5 24q-21 0 -38.5 -10t-31 -26.5t-22 -38t-10.5 -43.5q114 -175 141 -445 l-61 -8q-14 118 -39 212.5t-63 166.5q-101 192 -271 192q-53 0 -98 -19.5t-78.5 -54t-52.5 -82t-19 -102.5q0 -112 66 -190q60 -72 133 -72q-53 38 -53 105q0 27 10.5 51.5t28.5 42.5t42 28.5t52 10.5t52 -10.5t42 -28.5t28.5 -42.5t10.5 -51.5q0 -36 -16 -66.5t-42.5 -52 t-61.5 -33.5t-72 -12q-136 0 -211 100q-36 45 -53 100.5t-17 124.5zM303 152q0 -32 23 -55t55 -23t55 23t23 55t-23 54.5t-55 22.5t-55 -22.5t-23 -54.5z" />
<glyph unicode="&#xe5a;" horiz-adv-x="936" d="M41 651q0 88 72 135q64 43 153 43q29 0 54.5 -3t48.5 -11v-61q-26 8 -52 12t-49 4q-166 0 -166 -119q0 -66 72 -100q61 -29 129 -29q99 0 189 39q104 46 145 123v135h61v-194q67 40 103 100v94h61v-819h-61v639q-57 -57 -103 -78v-561h-61v598q-113 -131 -336 -131 q-101 0 -172 41q-88 49 -88 143z" />
<glyph unicode="&#xe5b;" horiz-adv-x="1393" d="M61 414q0 63 14 119t40 104q65 119 182 119q91 0 145 -80q52 -70 52 -164q0 -70 -25 -117q-35 -63 -94 -63q-22 0 -40.5 10t-32.5 27t-22 38t-8 44q0 24 7.5 45.5t20.5 38t31.5 26.5t41.5 10q31 0 55 -18q-6 60 -39 98q-36 49 -90 49q-90 0 -139 -108 q-20 -42 -29.5 -88.5t-9.5 -97.5q0 -115 47 -189q55 -88 164 -88q63 0 113 35t92 104q32 54 52 116t29 134q2 11 3 20t2 14l2 11q6 25 30 25q54 0 101 -242l20 125q15 96 37 96q30 0 64 -88q25 -65 36 -119q25 168 41 168q36 0 101 -159q33 129 53 129q16 0 39 -41 q8 -16 14.5 -31t14.5 -29q12 67 47 64q32 -2 67.5 -9t77.5 -18q-12 -15 -156 -24q-15 -62 -36 -62q-9 0 -68 113l-16 -78q-17 -59 -37 -59q-17 0 -47 65l-41 84q-22 -172 -54 -172q-16 0 -47 84q-37 96 -45 109q0 -59 -16 -127q-21 -93 -60 -93q-15 0 -43 103l-36 131 q-8 -79 -32 -150.5t-69 -134.5q-101 -147 -246 -147q-128 0 -198 108q-29 48 -44.5 104.5t-15.5 125.5zM322 453q0 -66 51 -66q53 0 53 66q0 65 -53 65q-51 0 -51 -65z" />
<glyph unicode="&#x2000;" horiz-adv-x="799" />
<glyph unicode="&#x2001;" horiz-adv-x="1599" />
<glyph unicode="&#x2002;" horiz-adv-x="799" />
<glyph unicode="&#x2003;" horiz-adv-x="1599" />
<glyph unicode="&#x2004;" horiz-adv-x="533" />
<glyph unicode="&#x2005;" horiz-adv-x="399" />
<glyph unicode="&#x2006;" horiz-adv-x="266" />
<glyph unicode="&#x2007;" horiz-adv-x="266" />
<glyph unicode="&#x2008;" horiz-adv-x="199" />
<glyph unicode="&#x2009;" horiz-adv-x="319" />
<glyph unicode="&#x200a;" horiz-adv-x="88" />
<glyph unicode="&#x200c;" />
<glyph unicode="&#x200d;" />
<glyph unicode="&#x2010;" horiz-adv-x="475" d="M88 328v61h299v-61h-299z" />
<glyph unicode="&#x2011;" horiz-adv-x="475" d="M88 328v61h299v-61h-299z" />
<glyph unicode="&#x2012;" horiz-adv-x="475" d="M88 328v61h299v-61h-299z" />
<glyph unicode="&#x2013;" horiz-adv-x="778" d="M61 328v61h656v-61h-656z" />
<glyph unicode="&#x2014;" horiz-adv-x="1556" d="M61 328v61h1434v-61h-1434z" />
<glyph unicode="&#x2018;" horiz-adv-x="385" d="M92 874q0 114 146 209l22 -22q-98 -62 -117 -158q16 15 47 15q29 0 49.5 -20.5t20.5 -49.5q0 -31 -22.5 -53.5t-55.5 -22.5q-42 0 -66 30t-24 72z" />
<glyph unicode="&#x2019;" horiz-adv-x="385" d="M92 797q99 62 117 157q-8 -8 -20 -11t-27 -3q-13 0 -25.5 6t-22.5 16t-16 22.5t-6 25.5q0 31 23 53t55 22q42 0 66 -30t24 -72q0 -112 -145 -209z" />
<glyph unicode="&#x201c;" horiz-adv-x="598" d="M92 874q0 114 146 209l22 -22q-98 -62 -117 -158q16 15 47 15q29 0 49.5 -20.5t20.5 -49.5q0 -31 -22.5 -53.5t-55.5 -22.5q-42 0 -66 30t-24 72zM338 874q0 115 145 209l23 -22q-99 -62 -117 -158q15 15 47 15q29 0 49.5 -20.5t20.5 -49.5q0 -31 -22.5 -53.5 t-55.5 -22.5q-42 0 -66 30t-24 72z" />
<glyph unicode="&#x201d;" horiz-adv-x="631" d="M92 797q99 62 117 157q-8 -8 -20 -11t-27 -3q-13 0 -25.5 6t-22.5 16t-16 22.5t-6 25.5q0 31 23 53t55 22q42 0 66 -30t24 -72q0 -112 -145 -209zM338 797q98 62 117 157q-16 -14 -47 -14q-13 0 -25.5 6t-22.5 16t-16 22.5t-6 25.5q0 31 23 53t55 22q42 0 66 -30t24 -72 q0 -113 -146 -209z" />
<glyph unicode="&#x2022;" horiz-adv-x="737" d="M61 410q0 126 91 217q90 90 217 90q125 0 217 -90q90 -92 90 -217q0 -127 -90 -217q-91 -91 -217 -91q-129 0 -217 91q-91 88 -91 217z" />
<glyph unicode="&#x2026;" horiz-adv-x="918" d="M94 63q0 66 66 66q65 0 65 -66q0 -65 -65 -65q-66 0 -66 65zM393 63q0 66 66 66q65 0 65 -66q0 -65 -65 -65q-66 0 -66 65zM692 63q0 66 66 66q65 0 65 -66q0 -65 -65 -65q-66 0 -66 65z" />
<glyph unicode="&#x202f;" horiz-adv-x="319" />
<glyph unicode="&#x205f;" horiz-adv-x="399" />
<glyph unicode="&#x2122;" horiz-adv-x="1307" d="M78 1020v61h452v-61h-198v-543h-58v543h-196zM641 477v604h100l191 -469h4l192 469h99v-604h-58v547h-6l-227 -547h-4l-227 547h-7v-547h-57z" />
<glyph unicode="&#xe000;" horiz-adv-x="660" d="M0 660h660v-660h-660v660z" />
<glyph unicode="&#xf700;" horiz-adv-x="752" d="M-4 690q132 144 342 144q110 0 190 -50l80 97l49 -37l-77 -94q131 -113 131 -324q0 -196 -129 -322q-128 -125 -332 -110l-100 450h-82v52h133l98 -443q151 -3 250 105q100 106 100 268q0 75 -21.5 137.5t-66.5 110.5q-86 98 -227 98q-166 0 -289 -123z" />
<glyph unicode="&#xf701;" d="M-829 922v61h593v-61h-593z" />
<glyph unicode="&#xf702;" d="M-829 922v61h532v102h61v-163h-593z" />
<glyph unicode="&#xf703;" d="M-829 922v61h479q-4 15 -4 25q0 18 7 34t19 28t28 19t34 7t34 -7t28 -19t19 -28t7 -34t-7 -33.5t-19 -27t-28 -18.5t-34 -7h-563zM-311 1008q0 -43 43 -43t43 43t-43 43t-43 -43z" />
<glyph unicode="&#xf704;" d="M-829 922v61h409v102h62v-102h61v102h61v-163h-593z" />
<glyph unicode="&#xf705;" d="M-338 922v184h62v-184h-62z" />
<glyph unicode="&#xf706;" d="M-381 1004v61h37q86 0 86 -66v-16h258v-61h-319v39q0 43 -39 43h-23z" />
<glyph unicode="&#xf707;" d="M-684 922v71q0 54 37.5 85.5t97.5 31.5h8l95 -68l94 68h8q60 0 97.5 -31.5t37.5 -85.5v-10h209v-61h-270v59q0 68 -68 68h-6l-102 -74l-103 74h-6q-68 0 -68 -68v-8h82v-51h-143z" />
<glyph unicode="&#xf708;" d="M-440 1008v53h82v86h61v-86h82v-53h-82v-86h-61v86h-82z" />
<glyph unicode="&#xf709;" d="M-377 922v34q0 93 96 93h88v-54h-59q-63 0 -63 -45v-28h-62z" />
<glyph unicode="&#xf70a;" d="M-133 922v184h61v-184h-61z" />
<glyph unicode="&#xf70b;" d="M-334 1004v61h37q86 0 86 -66v-16h258v-61h-319v39q0 43 -39 43h-23z" />
<glyph unicode="&#xf70c;" d="M-618 922v71q0 54 37.5 85.5t97.5 31.5h8l94 -68l94 68h8q60 0 98 -31.5t38 -85.5v-10h137v-61h-199v59q0 68 -67 68h-7l-102 -74l-102 74h-6q-68 0 -68 -68v-8h82v-51h-143z" />
<glyph unicode="&#xf70d;" d="M-215 1008v53h82v86h61v-86h82v-53h-82v-86h-61v86h-82z" />
<glyph unicode="&#xf70e;" d="M-205 922v34q0 93 96 93h89v-54h-60q-63 0 -63 -45v-28h-62z" />
<glyph unicode="&#xf70f;" horiz-adv-x="1311" d="M72 0v668q112 166 317 166q132 0 221 -68q97 -70 97 -199v-321q0 -97 69 -148q63 -51 166 -51q51 0 94.5 13.5t75 39t49 62.5t17.5 84v573h61v-573q0 -59 -23 -107t-63 -82t-94.5 -52.5t-116.5 -18.5t-116.5 18.5t-94.5 52.5t-63 82t-23 107v303q0 108 -76 168 q-70 55 -180 55q-171 0 -256 -123v-588h123v-61h-184z" />
<glyph unicode="&#xf710;" d="M-461 922v122h62v-61h471v-61h-533z" />
<glyph unicode="&#xf711;" d="M-354 1008q0 18 7 34t19 28t28 19t34 7t34 -7t28 -19t19 -28t7 -34t-7 -33.5t-19 -27t-28 -18.5t-34 -7t-34 7t-28 18.5t-19 27t-7 33.5zM-311 1008q0 -43 43 -43t43 43t-43 43t-43 -43z" />
<glyph unicode="&#xf712;" d="M-684 922v57q0 156 190 156h363v-56h-369q-123 0 -123 -92v-8h88l113 68l107 -68h118v-57h-127l-98 65l-100 -65h-162z" />
<glyph unicode="&#xf713;" d="M-297 1147v143h61v-143h-61z" />
<glyph unicode="&#xf714;" d="M-414 1225v57h35q82 0 82 -61v-17h246v-57h-305v37q0 41 -37 41h-21z" />
<glyph unicode="&#xf715;" d="M-428 1147v67q0 51 35 81t92 30h8l70 -63l71 63h7q57 0 93 -30t36 -81v-10h131v-57h-189v57q0 64 -65 64h-6l-78 -70l-78 70h-4q-66 0 -66 -64v-2h78v-55h-135z" />
<glyph unicode="&#xf716;" d="M-369 1212v50h72v65h61v-65h72v-50h-72v-65h-61v65h-72z" />
<glyph unicode="&#xf717;" d="M-360 1065v35q0 92 96 92h88v-53h-60q-63 0 -63 -45v-29h-61z" />
<glyph unicode="&#xf718;" d="M-215 -369h143v-225h-61v164h-82v61z" />
<glyph unicode="&#xf719;" d="M-420 -369h123v-145q22 -33 82 -33q16 0 31 5.5t26 15t18 23t7 28.5v106h61v-108q0 -27 -11.5 -49.5t-32 -39t-47 -25.5t-56.5 -9q-94 0 -139 65v105h-62v61z" />
<glyph unicode="&#xf71a;" d="M-158 -424q0 55 56 55q55 0 55 -55t-55 -55q-56 0 -56 55z" />
<glyph unicode="&#xf71d;" />
<glyph unicode="&#xf880;" />
<glyph horiz-adv-x="539" d="M-354 1008q0 18 7 34t19 28t28 19t34 7t34 -7t28 -19t19 -28t7 -34t-7 -33.5t-19 -27t-28 -18.5t-34 -7t-34 7t-28 18.5t-19 27t-7 33.5zM-311 1008q0 -43 43 -43t43 43t-43 43t-43 -43zM20 727v64q42 21 81 32t81 11q139 0 217 -84q68 -80 68 -203v-547h-61v528 q0 117 -57 182.5t-169 65.5q-99 0 -160 -49z" />
<glyph d="M-514 1016q0 62 63 106q29 20 59 29.5t62 9.5q-55 28 -55 92q0 162 360 162v-55q-8 2 -19 2h-28q-42 0 -78.5 -5t-70.5 -16q-98 -30 -98 -90q0 -65 120 -65v-53q-81 0 -151 -21q-101 -27 -101 -88q0 -49 72 -49q47 0 111 29l26 -48q-93 -34 -139 -34q-48 0 -88 22 q-45 28 -45 72z" />
<glyph />
<glyph />
<glyph d="M-829 922v61h409v102h62v-102h61v102h61v-163h-593zM-358 1147v143h61v-143h-61z" />
<glyph d="M-793 922v61h594v-61h-594z" />
<glyph d="M-793 922v61h533v102h61v-163h-594z" />
</font>
</defs>
</svg>
